# xmcd CD database file
#
# Track frame offsets:
#	150
#	14685
#	31897
#	49135
#	69387
#	91355
#	112588
#	131168
#	146854
#	160383
#	182055
#	204943
#
# Disc length: 2958 seconds
#
# Revision: 0
# Processed by: cddbd v1.5PL3 Copyright (c) Steve Scherf et al.
# Submitted via: CDex 1.51
#
DISCID=a50b8c0c
DTITLE=Luis Vargas - Todo Exitos
DYEAR=2004
DGENRE=Merengue
TTITLE0=Yo Mismo La Vi
TTITLE1=El Engano
TTITLE2=Dos Hombres Bebiendo
TTITLE3=Santo Domingo
TTITLE4=La Otra
TTITLE5=Ve y Dile
TTITLE6=Dajabon
TTITLE7=Por Tu Amor
TTITLE8=Amores Enfermos
TTITLE9=Si Pierdo A Mis Padres
TTITLE10=La Sangre Llama
TTITLE11=Me Rompiste El Corazon
EXTD=YEAR: 2004
EXTT0=
EXTT1=
EXTT2=
EXTT3=
EXTT4=
EXTT5=
EXTT6=
EXTT7=
EXTT8=
EXTT9=
EXTT10=
EXTT11=
PLAYORDER=
